# xmcd
#
# Track frame offsets: 
#        150
#        20720
#        42695
#        54742
#        73825
#        84222
#        102575
#        119787
#        138880
#        159500
#        182095
#
# Disc length: 2661 seconds
#
# Revision: 0
# Processed by: cddbd v1.5.2PL0 Copyright (c) Steve Scherf et al.
# Submitted via: ExactAudioCopy v0.95b2
#
DISCID=a20a630b
DTITLE=Sade - Lovers Rock
DYEAR=1900
DGENRE=Ballad
TTITLE0=By your Side
TTITLE1=Flow
TTITLE2=King of Sorrow
TTITLE3=Somebody Already broke my Heart
TTITLE4=All about our Love
TTITLE5=Slaven Song
TTITLE6=The sweetest Gift
TTITLE7=Every Word
TTITLE8=Immigrant
TTITLE9=Lovers Rock
TTITLE10=It´s only Love that gets you through
EXTD=
EXTT0=
EXTT1=
EXTT2=
EXTT3=
EXTT4=
EXTT5=
EXTT6=
EXTT7=
EXTT8=
EXTT9=
EXTT10=
PLAYORDER=
